<svg width="120" height="120" viewBox="0 0 120 120" fill="none" xmlns="http://www.w3.org/2000/svg">
<g clip-path="url(#clip0)">
<path d="M85.9215 38.5329C87.6582 36.9133 90.4989 37.8578 90.9201 40.1948L94.065 57.6459C94.2248 58.5328 94.7749 59.3009 95.5631 59.7378L111.072 68.3339C113.149 69.4851 113.129 72.4786 111.036 73.6013L95.4113 81.985C94.6172 82.4111 94.0567 83.1716 93.8848 84.0562L90.5021 101.463C90.049 103.794 87.1957 104.699 85.4813 103.056L72.6795 90.7866C72.0289 90.163 71.1324 89.865 70.238 89.9748L52.638 92.1366C50.281 92.4261 48.538 89.9923 49.571 87.854L57.2842 71.8873C57.6762 71.0758 57.6826 70.1311 57.3017 69.3143L49.8071 53.2438C48.8034 51.0916 50.5795 48.6819 52.9323 49.0035L70.5011 51.4052C71.394 51.5273 72.2945 51.2415 72.9535 50.6268L85.9215 38.5329Z" fill="#FFBC58"/>
<path d="M37.2626 17.8294C38.3995 15.7445 41.3931 15.7445 42.5301 17.8294L51.0202 33.3969C51.4517 34.1881 52.216 34.7434 53.1018 34.9093L70.531 38.1732C72.8651 38.6103 73.7902 41.4574 72.1588 43.183L59.9767 56.0681C59.3576 56.723 59.0656 57.6215 59.1816 58.5152L61.4634 76.1C61.769 78.4549 59.3471 80.2145 57.2018 79.1962L41.1828 71.5921C40.3687 71.2056 39.424 71.2056 38.6098 71.5921L22.5908 79.1962C20.4455 80.2145 18.0237 78.4549 18.3293 76.1L20.6111 58.5152C20.727 57.6215 20.4351 56.723 19.816 56.0681L7.63388 43.1829C6.00245 41.4574 6.92752 38.6103 9.26165 38.1732L26.6909 34.9093C27.5767 34.7434 28.341 34.1881 28.7725 33.3969L37.2626 17.8294Z" fill="#FFDA58"/>
<circle cx="30.7731" cy="48.791" r="2.10535" fill="#3A3A3A"/>
<circle cx="49.0195" cy="48.791" r="2.10535" fill="#3A3A3A"/>
<path d="M37.0893 53.7035C37.0893 55.1071 38.2122 56.5106 39.8965 56.5106C41.5807 56.5106 42.7036 55.1071 42.7036 53.7035" stroke="#3A3A3A" stroke-width="2" stroke-linecap="round" stroke-linejoin="round"/>
</g>
<defs>
<clipPath id="clip0">
<rect width="120" height="120" fill="white"/>
</clipPath>
</defs>
</svg>
