<svg width="120" height="120" viewBox="0 0 120 120" fill="none" xmlns="http://www.w3.org/2000/svg">
<g clip-path="url(#clip0)">
<path d="M38.4564 33.3928L72.0982 40.4829C74.7201 41.0354 76.8481 42.9448 77.6805 45.4917L88.3612 78.1714C89.1936 80.7183 88.604 83.5158 86.8146 85.5102L63.8535 111.1C62.064 113.094 59.3465 113.982 56.7246 113.43L23.0828 106.34C20.4609 105.787 18.3329 103.878 17.5005 101.331L6.81978 68.6512C5.98737 66.1043 6.57695 63.3068 8.36644 61.3124L31.3275 35.7228C33.117 33.7284 35.8345 32.8403 38.4564 33.3928Z" fill="#F8F8F8" stroke="#EEEEEE"/>
<path d="M32.3508 40.0869C33.379 38.941 35.2621 39.3379 35.7404 40.8013L44.7384 68.3321C45.2166 69.7955 43.9314 71.2279 42.4249 70.9104L14.0836 64.9374C12.5771 64.62 11.9792 62.7907 13.0074 61.6447L32.3508 40.0869Z" fill="#FFA0C2"/>
<path d="M72.1095 48.4661C73.1377 47.3202 75.0208 47.717 75.4991 49.1805L84.4971 76.7112C84.9753 78.1746 83.6901 79.6071 82.1836 79.2896L53.8423 73.3166C52.3358 72.9991 51.7379 71.1698 52.7661 70.0239L72.1095 48.4661Z" fill="#FFB660"/>
<path d="M50.8242 67.7461C49.796 68.892 47.9128 68.4951 47.4345 67.0317L38.4366 39.5009C37.9583 38.0375 39.2436 36.6051 40.7501 36.9226L69.0914 42.8956C70.5979 43.2131 71.1958 45.0423 70.1676 46.1883L50.8242 67.7461Z" fill="#FB7E7E"/>
<path d="M63.3298 106.923C62.3016 108.069 60.4185 107.672 59.9402 106.209L50.9423 78.6781C50.464 77.2146 51.7493 75.7822 53.2558 76.0997L81.5971 82.0727C83.1036 82.3902 83.7014 84.2195 82.6732 85.3654L63.3298 106.923Z" fill="#FFDA58"/>
<path d="M23.5711 98.5439C22.5429 99.6899 20.6598 99.293 20.1815 97.8296L11.1836 70.2988C10.7053 68.8354 11.9906 67.403 13.4971 67.7205L41.8384 73.6934C43.3449 74.0109 43.9427 75.8402 42.9145 76.9861L23.5711 98.5439Z" fill="#80DBF8"/>
<path d="M44.8564 79.2641C45.8847 78.1181 47.7678 78.515 48.2461 79.9784L57.244 107.509C57.7223 108.973 56.437 110.405 54.9305 110.088L26.5892 104.115C25.0827 103.797 24.4848 101.968 25.513 100.822L44.8564 79.2641Z" fill="#C4E762"/>
</g>
<defs>
<clipPath id="clip0">
<rect width="120" height="120" fill="white"/>
</clipPath>
</defs>
</svg>
