<svg width="120" height="120" viewBox="0 0 120 120" fill="none" xmlns="http://www.w3.org/2000/svg">
<rect x="13.0709" y="79.8173" width="53.4884" height="53.4884" rx="4.5" transform="rotate(-57.5158 13.0709 79.8173)" fill="#B5D6E9" stroke="white" stroke-width="3"/>
<rect x="20.2898" y="57.4698" width="53.4884" height="53.4884" rx="4.5" transform="rotate(-42.8114 20.2898 57.4698)" fill="#B5D6E9" stroke="white" stroke-width="3"/>
<rect x="43.8465" y="31.8434" width="53.4884" height="53.4884" rx="4.5" transform="rotate(-11.9393 43.8465 31.8434)" fill="#4F70A3" stroke="white" stroke-width="3"/>
<path d="M77.0692 60.8175L75.4765 59.8841C69.8232 56.5856 66.0916 54.4108 65.3554 50.929C64.7555 48.092 66.5132 45.3916 69.3502 44.7917C70.953 44.4528 72.649 44.8736 73.9023 45.8403C74.657 44.449 76.0375 43.3777 77.6402 43.0388C80.4772 42.4389 83.1776 44.1966 83.7775 47.0336C84.5137 50.5154 81.9818 54.0146 78.1497 59.3285L77.0692 60.8175Z" fill="white"/>
</svg>
