<svg width="175" height="45" viewBox="0 0 199 52" fill="none" xmlns="http://www.w3.org/2000/svg">
<path d="M46.5234 4.84375C45.9635 5.66406 45.3385 6.64714 44.6484 7.79297C43.9583 8.9388 43.2227 10.2214 42.4414 11.6406C41.7773 12.8255 41.1198 14.0885 40.4688 15.4297C39.8307 16.7578 39.2188 18.0794 38.6328 19.3945C38.0469 20.6966 37.5065 21.9531 37.0117 23.1641C36.5169 24.362 36.0872 25.4232 35.7227 26.3477C35.3581 27.2591 35.0716 27.9948 34.8633 28.5547C34.6549 29.1016 34.5508 29.3815 34.5508 29.3945C34.4206 29.7201 34.1862 29.8828 33.8477 29.8828C33.6784 29.8828 33.5286 29.8307 33.3984 29.7266C33.2682 29.6094 33.1836 29.4661 33.1445 29.2969C33.1445 29.2839 33.0794 29.0104 32.9492 28.4766C32.832 27.9297 32.6693 27.207 32.4609 26.3086C32.2526 25.3971 32.0117 24.3555 31.7383 23.1836C31.4779 21.9987 31.1979 20.7682 30.8984 19.4922C30.612 18.2031 30.319 16.901 30.0195 15.5859C29.7201 14.2708 29.4401 13.0208 29.1797 11.8359C28.3073 14.2969 27.4284 16.4779 26.543 18.3789C25.6706 20.2669 24.7721 21.9141 23.8477 23.3203C22.9232 24.7135 21.9661 25.8854 20.9766 26.8359C20 27.7865 18.9714 28.5547 17.8906 29.1406C16.8229 29.7135 15.6966 30.1237 14.5117 30.3711C13.3398 30.6185 12.0964 30.7422 10.7812 30.7422C10.1042 30.7422 9.38151 30.6641 8.61328 30.5078C7.84505 30.3646 7.08333 30.1367 6.32812 29.8242C5.57292 29.5117 4.85026 29.1211 4.16016 28.6523C3.47005 28.1836 2.85807 27.6302 2.32422 26.9922C1.79036 26.3411 1.36719 25.612 1.05469 24.8047C0.742188 23.9844 0.585938 23.0729 0.585938 22.0703C0.585938 21.0156 0.807292 20.0521 1.25 19.1797C1.69271 18.2943 2.29167 17.5391 3.04688 16.9141C3.80208 16.276 4.67448 15.7812 5.66406 15.4297C6.66667 15.0781 7.72135 14.9023 8.82812 14.9023C9.63542 14.9023 10.3581 14.974 10.9961 15.1172C11.6471 15.2474 12.2201 15.4167 12.7148 15.625C13.2096 15.8333 13.6328 16.0612 13.9844 16.3086C14.3359 16.556 14.6289 16.7839 14.8633 16.9922C15.0977 17.2005 15.2669 17.3828 15.3711 17.5391C15.4753 17.6823 15.5339 17.7539 15.5469 17.7539C15.625 17.8971 15.6641 18.0339 15.6641 18.1641C15.6641 18.3464 15.5924 18.5156 15.4492 18.6719C15.319 18.8281 15.1432 18.9062 14.9219 18.9062C14.6615 18.9062 14.4531 18.7956 14.2969 18.5742C14.2839 18.5612 14.1797 18.444 13.9844 18.2227C13.7891 17.9883 13.4701 17.7344 13.0273 17.4609C12.5846 17.1875 12.0117 16.9401 11.3086 16.7188C10.6185 16.4974 9.77214 16.3867 8.76953 16.3867C7.85807 16.3867 6.99219 16.5299 6.17188 16.8164C5.36458 17.0898 4.65495 17.4805 4.04297 17.9883C3.44401 18.4961 2.96224 19.1016 2.59766 19.8047C2.24609 20.4948 2.07031 21.2565 2.07031 22.0898C2.07031 22.9102 2.20703 23.6589 2.48047 24.3359C2.75391 25.013 3.11849 25.6185 3.57422 26.1523C4.02995 26.6862 4.55729 27.1484 5.15625 27.5391C5.75521 27.9297 6.38021 28.2552 7.03125 28.5156C7.68229 28.763 8.33333 28.9518 8.98438 29.082C9.64844 29.1992 10.2734 29.2578 10.8594 29.2578C11.849 29.2578 12.8125 29.1862 13.75 29.043C14.7005 28.8867 15.6315 28.6003 16.543 28.1836C17.4674 27.7669 18.3724 27.194 19.2578 26.4648C20.1432 25.7357 21.0221 24.7852 21.8945 23.6133C22.7669 22.4414 23.6263 21.0286 24.4727 19.375C25.332 17.7214 26.1914 15.7682 27.0508 13.5156C27.3112 12.8385 27.5651 12.1094 27.8125 11.3281C28.0599 10.5469 28.3138 9.75911 28.5742 8.96484C28.3529 7.81901 28.1901 6.84245 28.0859 6.03516C27.9948 5.22786 27.9492 4.55729 27.9492 4.02344C27.9492 3.45052 27.9948 2.99479 28.0859 2.65625C28.1771 2.31771 28.2943 2.0638 28.4375 1.89453C28.5807 1.71224 28.737 1.60156 28.9062 1.5625C29.0755 1.51042 29.2383 1.48438 29.3945 1.48438C29.5247 1.48438 29.668 1.51042 29.8242 1.5625C29.9935 1.61458 30.1432 1.73177 30.2734 1.91406C30.4167 2.08333 30.5339 2.33724 30.625 2.67578C30.7161 3.01432 30.7617 3.47005 30.7617 4.04297C30.7617 4.66797 30.7031 5.39062 30.5859 6.21094C30.4688 7.03125 30.293 7.9362 30.0586 8.92578C30.2279 9.72005 30.4232 10.6055 30.6445 11.582C30.8659 12.5586 31.0938 13.5742 31.3281 14.6289C31.5625 15.6706 31.8034 16.7383 32.0508 17.832C32.2982 18.9258 32.5391 19.9935 32.7734 21.0352C33.0078 22.0768 33.2292 23.0729 33.4375 24.0234C33.6589 24.974 33.8607 25.8333 34.043 26.6016C34.3945 25.7161 34.8242 24.6484 35.332 23.3984C35.8398 22.1354 36.4062 20.8008 37.0312 19.3945C37.6562 17.9753 38.3138 16.5365 39.0039 15.0781C39.707 13.6068 40.4232 12.2201 41.1523 10.918C42.181 9.06901 43.125 7.48698 43.9844 6.17188C44.8438 4.84375 45.5859 3.75 46.2109 2.89062C46.8359 2.03125 47.3242 1.39974 47.6758 0.996094C48.0404 0.579427 48.2357 0.351562 48.2617 0.3125C48.4049 0.169271 48.5807 0.0976562 48.7891 0.0976562C49.0104 0.0976562 49.1862 0.175781 49.3164 0.332031C49.4596 0.47526 49.5312 0.644531 49.5312 0.839844C49.5312 0.93099 49.5117 1.02214 49.4727 1.11328C49.4727 1.1263 49.3945 1.32161 49.2383 1.69922C49.0951 2.0638 48.9062 2.57161 48.6719 3.22266C48.4505 3.86068 48.2031 4.61589 47.9297 5.48828C47.6562 6.34766 47.3893 7.27865 47.1289 8.28125C46.8685 9.27083 46.6341 10.3125 46.4258 11.4062C46.2305 12.487 46.0872 13.5677 45.9961 14.6484C45.957 15.1432 45.9245 15.6641 45.8984 16.2109C45.8724 16.7448 45.8594 17.2852 45.8594 17.832C45.8594 18.6914 45.8984 19.5573 45.9766 20.4297C46.0547 21.3021 46.1849 22.1419 46.3672 22.9492C46.5495 23.7565 46.7969 24.5182 47.1094 25.2344C47.4219 25.9375 47.806 26.556 48.2617 27.0898C48.7174 27.6237 49.2578 28.0534 49.8828 28.3789C50.5208 28.7044 51.2565 28.8802 52.0898 28.9062C52.2982 28.9193 52.4609 29.0104 52.5781 29.1797C52.7083 29.3359 52.7734 29.5052 52.7734 29.6875C52.7734 29.8698 52.7018 30.0326 52.5586 30.1758C52.4154 30.319 52.2461 30.3906 52.0508 30.3906C51.8424 30.3906 51.6341 30.3711 51.4258 30.332C50.4883 30.2018 49.6615 29.9349 48.9453 29.5312C48.2292 29.1146 47.6107 28.6068 47.0898 28.0078C46.569 27.3958 46.1328 26.7057 45.7812 25.9375C45.4427 25.1562 45.1693 24.3229 44.9609 23.4375C44.7526 22.5521 44.6029 21.6341 44.5117 20.6836C44.4336 19.7201 44.3945 18.75 44.3945 17.7734C44.3945 16.6146 44.4531 15.4557 44.5703 14.2969C44.6875 13.138 44.8438 12.0117 45.0391 10.918C45.2344 9.8112 45.4622 8.74349 45.7227 7.71484C45.9831 6.6862 46.25 5.72917 46.5234 4.84375ZM69.0039 24.5508C68.9518 24.6549 68.8411 24.8763 68.6719 25.2148C68.5156 25.5404 68.3073 25.918 68.0469 26.3477C67.7995 26.7773 67.5065 27.2266 67.168 27.6953C66.8294 28.1641 66.4518 28.5938 66.0352 28.9844C65.6185 29.375 65.1693 29.7005 64.6875 29.9609C64.2057 30.2083 63.6979 30.332 63.1641 30.332C62.4089 30.332 61.7708 30.0911 61.25 29.6094C60.7422 29.1276 60.3711 28.5221 60.1367 27.793C59.694 28.5352 59.1667 29.1276 58.5547 29.5703C57.9427 30 57.3307 30.2148 56.7188 30.2148C56.237 30.2148 55.8008 30.1302 55.4102 29.9609C55.0195 29.7786 54.6875 29.5312 54.4141 29.2188C54.1406 28.8932 53.9258 28.5156 53.7695 28.0859C53.6263 27.6562 53.5547 27.1875 53.5547 26.6797C53.5547 25.6641 53.724 24.7721 54.0625 24.0039C54.4141 23.2227 54.8568 22.5716 55.3906 22.0508C55.9245 21.5299 56.5104 21.1393 57.1484 20.8789C57.7995 20.6185 58.4245 20.4883 59.0234 20.4883C59.4271 20.4883 59.7982 20.5469 60.1367 20.6641C60.4753 20.7682 60.7617 20.8854 60.9961 21.0156C61.2435 21.1458 61.4323 21.2695 61.5625 21.3867C61.6927 21.4909 61.7643 21.5495 61.7773 21.5625C61.9206 21.7318 61.9922 21.9076 61.9922 22.0898C61.9922 22.2852 61.9206 22.4609 61.7773 22.6172C61.6341 22.7604 61.4648 22.832 61.2695 22.832C61.0612 22.832 60.8854 22.7604 60.7422 22.6172C60.7161 22.5911 60.6576 22.5456 60.5664 22.4805C60.4753 22.4023 60.3516 22.3242 60.1953 22.2461C60.0391 22.168 59.8503 22.1029 59.6289 22.0508C59.4206 21.9857 59.1797 21.9531 58.9062 21.9531C58.5026 21.9531 58.0729 22.0443 57.6172 22.2266C57.1615 22.4089 56.7448 22.6953 56.3672 23.0859C55.9896 23.4635 55.6706 23.9453 55.4102 24.5312C55.1628 25.1042 55.0391 25.7878 55.0391 26.582C55.0391 26.8294 55.0651 27.0833 55.1172 27.3438C55.1693 27.5911 55.2604 27.819 55.3906 28.0273C55.5208 28.2357 55.6966 28.4049 55.918 28.5352C56.1393 28.6654 56.4128 28.7305 56.7383 28.7305C56.9727 28.7305 57.2396 28.6523 57.5391 28.4961C57.8516 28.3398 58.1445 28.099 58.418 27.7734C58.7044 27.4479 58.9583 27.0378 59.1797 26.543C59.4141 26.0482 59.5768 25.4622 59.668 24.7852C59.694 24.6029 59.7786 24.4531 59.9219 24.3359C60.0651 24.2057 60.2344 24.1406 60.4297 24.1406C60.612 24.1406 60.7682 24.2122 60.8984 24.3555C61.0417 24.4987 61.1198 24.6615 61.1328 24.8438C61.1458 25.0911 61.1719 25.4427 61.2109 25.8984C61.25 26.3411 61.3346 26.7839 61.4648 27.2266C61.6081 27.6693 61.8164 28.0534 62.0898 28.3789C62.3633 28.7044 62.7409 28.8672 63.2227 28.8672C63.5352 28.8672 63.8411 28.7826 64.1406 28.6133C64.4531 28.444 64.7526 28.2227 65.0391 27.9492C65.3385 27.6628 65.6185 27.3438 65.8789 26.9922C66.1523 26.6276 66.3997 26.263 66.6211 25.8984C66.8424 25.5339 67.0378 25.1823 67.207 24.8438C67.3763 24.5052 67.5195 24.2122 67.6367 23.9648C67.7018 23.8216 67.793 23.7109 67.9102 23.6328C68.0404 23.5547 68.1771 23.5156 68.3203 23.5156C68.5417 23.5156 68.7174 23.6003 68.8477 23.7695C68.9909 23.9258 69.0625 24.0951 69.0625 24.2773C69.0625 24.3685 69.043 24.4596 69.0039 24.5508ZM74.7266 31.9141C77.1745 28.724 78.8737 26.0742 79.8242 23.9648C79.8893 23.8216 79.974 23.7174 80.0781 23.6523C80.1953 23.5742 80.3255 23.5352 80.4688 23.5352C80.6901 23.5352 80.8724 23.6133 81.0156 23.7695C81.1589 23.9128 81.2305 24.082 81.2305 24.2773C81.2305 24.3685 81.2109 24.4596 81.1719 24.5508C80.599 25.8529 79.7852 27.3047 78.7305 28.9062C77.6758 30.5078 76.3411 32.3177 74.7266 34.3359C74.7266 35.1562 74.7331 35.9766 74.7461 36.7969C74.7591 37.6172 74.7656 38.5156 74.7656 39.4922C74.7656 40.4688 74.7396 41.4323 74.6875 42.3828C74.6484 43.3464 74.5703 44.2578 74.4531 45.1172C74.3359 45.9896 74.1732 46.7904 73.9648 47.5195C73.7695 48.2617 73.5091 48.8997 73.1836 49.4336C72.8711 49.9805 72.487 50.4036 72.0312 50.7031C71.5885 51.0156 71.0612 51.1719 70.4492 51.1719C69.5768 51.1719 68.9062 50.8398 68.4375 50.1758C67.9688 49.5117 67.7344 48.5677 67.7344 47.3438C67.7344 46.6927 67.793 45.9831 67.9102 45.2148C68.0404 44.4596 68.2227 43.6784 68.457 42.8711C68.6914 42.0638 68.9714 41.2435 69.2969 40.4102C69.6354 39.5898 70.0065 38.7891 70.4102 38.0078C70.8138 37.2266 71.25 36.4779 71.7188 35.7617C72.2005 35.0456 72.7083 34.3945 73.2422 33.8086C73.2552 32.8971 73.2617 31.9922 73.2617 31.0938C73.2747 30.1953 73.2943 29.3685 73.3203 28.6133C72.9297 29.1081 72.4609 29.4987 71.9141 29.7852C71.3802 30.0716 70.8464 30.2148 70.3125 30.2148C69.8568 30.2148 69.4401 30.1302 69.0625 29.9609C68.6979 29.7786 68.3854 29.5312 68.125 29.2188C67.8646 28.8932 67.6628 28.5156 67.5195 28.0859C67.3763 27.6562 67.3047 27.1875 67.3047 26.6797C67.3047 25.6641 67.474 24.7721 67.8125 24.0039C68.1641 23.2227 68.6068 22.5716 69.1406 22.0508C69.6745 21.5299 70.2604 21.1393 70.8984 20.8789C71.5495 20.6185 72.1745 20.4883 72.7734 20.4883C73.1771 20.4883 73.5482 20.5404 73.8867 20.6445C74.2253 20.7487 74.5117 20.8659 74.7461 20.9961C74.9935 21.1263 75.1823 21.25 75.3125 21.3672C75.4427 21.4844 75.5143 21.5495 75.5273 21.5625C75.6706 21.7188 75.7422 21.8945 75.7422 22.0898C75.7422 22.2852 75.6706 22.4609 75.5273 22.6172C75.3841 22.7604 75.2148 22.832 75.0195 22.832C74.8372 22.832 74.6615 22.7604 74.4922 22.6172C74.4401 22.5781 74.3685 22.526 74.2773 22.4609C74.1992 22.3828 74.0885 22.3047 73.9453 22.2266C73.8151 22.1484 73.6523 22.0833 73.457 22.0312C73.2747 21.9792 73.0534 21.9531 72.793 21.9531C72.4023 21.9531 71.9727 22.0443 71.5039 22.2266C71.0352 22.3958 70.599 22.6693 70.1953 23.0469C69.7917 23.4245 69.4531 23.9128 69.1797 24.5117C68.9062 25.0977 68.7695 25.8073 68.7695 26.6406C68.7695 27.2656 68.9062 27.7734 69.1797 28.1641C69.4531 28.5417 69.8763 28.7305 70.4492 28.7305C70.7227 28.7305 71.0091 28.6523 71.3086 28.4961C71.6211 28.3398 71.9206 28.099 72.207 27.7734C72.4935 27.4479 72.7409 27.0378 72.9492 26.543C73.1706 26.0482 73.3268 25.4622 73.418 24.7852C73.444 24.6029 73.5286 24.4531 73.6719 24.3359C73.8151 24.2057 73.9844 24.1406 74.1797 24.1406C74.401 24.1406 74.5703 24.2188 74.6875 24.375C74.8177 24.5312 74.8828 24.707 74.8828 24.9023C74.8828 24.9154 74.8763 25.1172 74.8633 25.5078C74.8503 25.8854 74.8372 26.3932 74.8242 27.0312C74.8112 27.6693 74.7917 28.4115 74.7656 29.2578C74.7526 30.0911 74.7396 30.9766 74.7266 31.9141ZM73.2422 36.1914C72.6302 37.0378 72.0768 37.9557 71.582 38.9453C71.0872 39.9479 70.6641 40.957 70.3125 41.9727C69.9609 42.9883 69.6875 43.9714 69.4922 44.9219C69.3099 45.8854 69.2188 46.7448 69.2188 47.5C69.2188 47.9818 69.2578 48.3659 69.3359 48.6523C69.4271 48.9388 69.5312 49.1602 69.6484 49.3164C69.7786 49.4727 69.9154 49.5768 70.0586 49.6289C70.2148 49.681 70.3581 49.707 70.4883 49.707C70.8919 49.707 71.2435 49.5443 71.543 49.2188C71.8424 48.8932 72.0964 48.457 72.3047 47.9102C72.513 47.3763 72.6823 46.7578 72.8125 46.0547C72.9427 45.3516 73.0404 44.6224 73.1055 43.8672C73.1706 43.125 73.2161 42.3828 73.2422 41.6406C73.2682 40.8984 73.2812 40.2148 73.2812 39.5898C73.2812 39.0299 73.2812 38.4701 73.2812 37.9102C73.2812 37.3503 73.2682 36.7773 73.2422 36.1914ZM86.9141 31.9141C89.362 28.724 91.0612 26.0742 92.0117 23.9648C92.0768 23.8216 92.1615 23.7174 92.2656 23.6523C92.3828 23.5742 92.513 23.5352 92.6562 23.5352C92.8776 23.5352 93.0599 23.6133 93.2031 23.7695C93.3464 23.9128 93.418 24.082 93.418 24.2773C93.418 24.3685 93.3984 24.4596 93.3594 24.5508C92.7865 25.8529 91.9727 27.3047 90.918 28.9062C89.8633 30.5078 88.5286 32.3177 86.9141 34.3359C86.9141 35.1562 86.9206 35.9766 86.9336 36.7969C86.9466 37.6172 86.9531 38.5156 86.9531 39.4922C86.9531 40.4688 86.9271 41.4323 86.875 42.3828C86.8359 43.3464 86.7578 44.2578 86.6406 45.1172C86.5234 45.9896 86.3607 46.7904 86.1523 47.5195C85.957 48.2617 85.6966 48.8997 85.3711 49.4336C85.0586 49.9805 84.6745 50.4036 84.2188 50.7031C83.776 51.0156 83.2487 51.1719 82.6367 51.1719C81.7643 51.1719 81.0938 50.8398 80.625 50.1758C80.1562 49.5117 79.9219 48.5677 79.9219 47.3438C79.9219 46.6927 79.9805 45.9831 80.0977 45.2148C80.2279 44.4596 80.4102 43.6784 80.6445 42.8711C80.8789 42.0638 81.1589 41.2435 81.4844 40.4102C81.8229 39.5898 82.194 38.7891 82.5977 38.0078C83.0013 37.2266 83.4375 36.4779 83.9062 35.7617C84.388 35.0456 84.8958 34.3945 85.4297 33.8086C85.4427 32.8971 85.4492 31.9922 85.4492 31.0938C85.4622 30.1953 85.4818 29.3685 85.5078 28.6133C85.1172 29.1081 84.6484 29.4987 84.1016 29.7852C83.5677 30.0716 83.0339 30.2148 82.5 30.2148C82.0443 30.2148 81.6276 30.1302 81.25 29.9609C80.8854 29.7786 80.5729 29.5312 80.3125 29.2188C80.0521 28.8932 79.8503 28.5156 79.707 28.0859C79.5638 27.6562 79.4922 27.1875 79.4922 26.6797C79.4922 25.6641 79.6615 24.7721 80 24.0039C80.3516 23.2227 80.7943 22.5716 81.3281 22.0508C81.862 21.5299 82.4479 21.1393 83.0859 20.8789C83.737 20.6185 84.362 20.4883 84.9609 20.4883C85.3646 20.4883 85.7357 20.5404 86.0742 20.6445C86.4128 20.7487 86.6992 20.8659 86.9336 20.9961C87.181 21.1263 87.3698 21.25 87.5 21.3672C87.6302 21.4844 87.7018 21.5495 87.7148 21.5625C87.8581 21.7188 87.9297 21.8945 87.9297 22.0898C87.9297 22.2852 87.8581 22.4609 87.7148 22.6172C87.5716 22.7604 87.4023 22.832 87.207 22.832C87.0247 22.832 86.849 22.7604 86.6797 22.6172C86.6276 22.5781 86.556 22.526 86.4648 22.4609C86.3867 22.3828 86.276 22.3047 86.1328 22.2266C86.0026 22.1484 85.8398 22.0833 85.6445 22.0312C85.4622 21.9792 85.2409 21.9531 84.9805 21.9531C84.5898 21.9531 84.1602 22.0443 83.6914 22.2266C83.2227 22.3958 82.7865 22.6693 82.3828 23.0469C81.9792 23.4245 81.6406 23.9128 81.3672 24.5117C81.0938 25.0977 80.957 25.8073 80.957 26.6406C80.957 27.2656 81.0938 27.7734 81.3672 28.1641C81.6406 28.5417 82.0638 28.7305 82.6367 28.7305C82.9102 28.7305 83.1966 28.6523 83.4961 28.4961C83.8086 28.3398 84.1081 28.099 84.3945 27.7734C84.681 27.4479 84.9284 27.0378 85.1367 26.543C85.3581 26.0482 85.5143 25.4622 85.6055 24.7852C85.6315 24.6029 85.7161 24.4531 85.8594 24.3359C86.0026 24.2057 86.1719 24.1406 86.3672 24.1406C86.5885 24.1406 86.7578 24.2188 86.875 24.375C87.0052 24.5312 87.0703 24.707 87.0703 24.9023C87.0703 24.9154 87.0638 25.1172 87.0508 25.5078C87.0378 25.8854 87.0247 26.3932 87.0117 27.0312C86.9987 27.6693 86.9792 28.4115 86.9531 29.2578C86.9401 30.0911 86.9271 30.9766 86.9141 31.9141ZM85.4297 36.1914C84.8177 37.0378 84.2643 37.9557 83.7695 38.9453C83.2747 39.9479 82.8516 40.957 82.5 41.9727C82.1484 42.9883 81.875 43.9714 81.6797 44.9219C81.4974 45.8854 81.4062 46.7448 81.4062 47.5C81.4062 47.9818 81.4453 48.3659 81.5234 48.6523C81.6146 48.9388 81.7188 49.1602 81.8359 49.3164C81.9661 49.4727 82.1029 49.5768 82.2461 49.6289C82.4023 49.681 82.5456 49.707 82.6758 49.707C83.0794 49.707 83.431 49.5443 83.7305 49.2188C84.0299 48.8932 84.2839 48.457 84.4922 47.9102C84.7005 47.3763 84.8698 46.7578 85 46.0547C85.1302 45.3516 85.2279 44.6224 85.293 43.8672C85.3581 43.125 85.4036 42.3828 85.4297 41.6406C85.4557 40.8984 85.4688 40.2148 85.4688 39.5898C85.4688 39.0299 85.4688 38.4701 85.4688 37.9102C85.4688 37.3503 85.4557 36.7773 85.4297 36.1914ZM95.2148 14.668C95.2148 15.1628 95.0391 15.5859 94.6875 15.9375C94.349 16.276 93.9323 16.4453 93.4375 16.4453C92.9427 16.4453 92.5195 16.276 92.168 15.9375C91.8294 15.5859 91.6602 15.1628 91.6602 14.668C91.6602 14.4206 91.7057 14.1927 91.7969 13.9844C91.888 13.763 92.0117 13.5742 92.168 13.418C92.3372 13.2487 92.526 13.1185 92.7344 13.0273C92.9557 12.9362 93.1901 12.8906 93.4375 12.8906C93.6849 12.8906 93.9128 12.9362 94.1211 13.0273C94.3424 13.1185 94.5312 13.2487 94.6875 13.418C94.8568 13.5742 94.987 13.763 95.0781 13.9844C95.1693 14.1927 95.2148 14.4206 95.2148 14.668ZM92.0508 26.1133C92.0508 24.2383 92.168 22.3698 92.4023 20.5078C92.4284 20.3255 92.5065 20.1693 92.6367 20.0391C92.7799 19.8958 92.9622 19.8242 93.1836 19.8242C93.3789 19.8242 93.5417 19.9023 93.6719 20.0586C93.8021 20.2018 93.8672 20.3711 93.8672 20.5664C93.8672 20.6445 93.8477 20.8789 93.8086 21.2695C93.7826 21.6602 93.7435 22.1289 93.6914 22.6758C93.6523 23.2096 93.6133 23.7826 93.5742 24.3945C93.5482 24.9935 93.5352 25.5469 93.5352 26.0547C93.5352 26.7448 93.6003 27.3047 93.7305 27.7344C93.8737 28.151 94.0495 28.4766 94.2578 28.7109C94.4792 28.9453 94.707 29.1016 94.9414 29.1797C95.1888 29.2578 95.4232 29.2969 95.6445 29.2969C96.0091 29.2969 96.3867 29.1667 96.7773 28.9062C97.168 28.6458 97.5651 28.2812 97.9688 27.8125C98.3854 27.3438 98.8021 26.7839 99.2188 26.1328C99.6354 25.4688 100.046 24.7331 100.449 23.9258C100.514 23.7956 100.605 23.6979 100.723 23.6328C100.84 23.5547 100.97 23.5156 101.113 23.5156C101.322 23.5156 101.491 23.5938 101.621 23.75C101.764 23.9062 101.836 24.0755 101.836 24.2578C101.836 24.388 101.81 24.4987 101.758 24.5898C101.602 24.8893 101.406 25.2539 101.172 25.6836C100.938 26.1133 100.671 26.556 100.371 27.0117C100.072 27.4674 99.7396 27.9232 99.375 28.3789C99.0234 28.8216 98.6458 29.2253 98.2422 29.5898C97.8385 29.9414 97.4154 30.2279 96.9727 30.4492C96.5299 30.6706 96.0807 30.7812 95.625 30.7812C95.0391 30.7812 94.5247 30.6576 94.082 30.4102C93.6393 30.1628 93.2617 29.8307 92.9492 29.4141C92.6497 28.9974 92.4219 28.5091 92.2656 27.9492C92.1224 27.3763 92.0508 26.7643 92.0508 26.1133ZM94.1211 14.668C94.1211 14.4857 94.0495 14.3294 93.9062 14.1992C93.776 14.056 93.6198 13.9844 93.4375 13.9844C93.2552 13.9844 93.099 14.056 92.9688 14.1992C92.8385 14.3294 92.7734 14.4857 92.7734 14.668C92.7734 14.8503 92.8385 15.0065 92.9688 15.1367C93.099 15.2669 93.2552 15.332 93.4375 15.332C93.6198 15.332 93.776 15.2669 93.9062 15.1367C94.0495 15.0065 94.1211 14.8503 94.1211 14.668ZM102.773 27.8516C103.047 28.2292 103.398 28.5352 103.828 28.7695C104.258 28.9909 104.785 29.1016 105.41 29.1016C106.048 29.1016 106.628 28.9518 107.148 28.6523C107.669 28.3398 108.145 27.9362 108.574 27.4414C109.004 26.9466 109.388 26.3932 109.727 25.7812C110.065 25.1693 110.371 24.5573 110.645 23.9453C110.71 23.8021 110.801 23.6979 110.918 23.6328C111.035 23.5547 111.165 23.5156 111.309 23.5156C111.53 23.5156 111.706 23.5938 111.836 23.75C111.979 23.9062 112.051 24.0755 112.051 24.2578C112.051 24.3229 112.044 24.3815 112.031 24.4336C112.018 24.4727 111.999 24.5182 111.973 24.5703C111.074 26.5495 110.091 28.0404 109.023 29.043C107.969 30.0456 106.771 30.5599 105.43 30.5859C104.57 30.5859 103.828 30.4167 103.203 30.0781C102.578 29.7526 102.064 29.3294 101.66 28.8086C101.257 28.2747 100.957 27.6758 100.762 27.0117C100.566 26.3477 100.469 25.6836 100.469 25.0195C100.469 24.3555 100.547 23.7435 100.703 23.1836C100.872 22.6237 101.107 22.1354 101.406 21.7188C101.719 21.3021 102.083 20.9766 102.5 20.7422C102.93 20.5078 103.398 20.3906 103.906 20.3906C104.206 20.3906 104.499 20.4557 104.785 20.5859C105.085 20.7031 105.352 20.8789 105.586 21.1133C105.82 21.3346 106.009 21.6081 106.152 21.9336C106.296 22.2591 106.367 22.6302 106.367 23.0469C106.367 23.5807 106.276 24.082 106.094 24.5508C105.911 25.0195 105.658 25.4557 105.332 25.8594C105.02 26.263 104.642 26.6341 104.199 26.9727C103.757 27.3112 103.281 27.6042 102.773 27.8516ZM102.188 26.582C102.591 26.4128 102.956 26.1979 103.281 25.9375C103.62 25.6771 103.906 25.3906 104.141 25.0781C104.375 24.7656 104.557 24.4401 104.688 24.1016C104.818 23.75 104.883 23.3984 104.883 23.0469C104.883 22.6562 104.785 22.3633 104.59 22.168C104.395 21.9596 104.167 21.8555 103.906 21.8555C103.555 21.8555 103.255 21.9531 103.008 22.1484C102.76 22.3438 102.559 22.5977 102.402 22.9102C102.246 23.2227 102.129 23.5742 102.051 23.9648C101.986 24.3424 101.953 24.7201 101.953 25.0977C101.953 25.332 101.973 25.5794 102.012 25.8398C102.064 26.1003 102.122 26.3477 102.188 26.582ZM152.598 11.2305C152.598 11.4258 152.526 11.6016 152.383 11.7578C152.253 11.9141 152.083 11.9922 151.875 11.9922C151.68 11.9922 151.51 11.9271 151.367 11.7969C151.224 11.6667 151.139 11.4909 151.113 11.2695C151.1 11.2174 151.068 10.9701 151.016 10.5273C150.977 10.0846 150.846 9.54427 150.625 8.90625C150.417 8.25521 150.091 7.5651 149.648 6.83594C149.206 6.09375 148.594 5.41016 147.812 4.78516C147.044 4.16016 146.068 3.63932 144.883 3.22266C143.698 2.80599 142.259 2.59766 140.566 2.59766C139.069 2.59766 137.559 2.82552 136.035 3.28125C134.525 3.72396 133.073 4.35547 131.68 5.17578C130.286 5.98307 128.984 6.95312 127.773 8.08594C126.562 9.20573 125.508 10.4427 124.609 11.7969C123.724 13.151 123.021 14.5964 122.5 16.1328C121.992 17.6693 121.738 19.2513 121.738 20.8789C121.738 22.3503 121.94 23.6133 122.344 24.668C122.747 25.7096 123.307 26.5625 124.023 27.2266C124.74 27.8906 125.579 28.3789 126.543 28.6914C127.52 28.9909 128.568 29.1406 129.688 29.1406C131.628 29.1406 133.438 28.8086 135.117 28.1445C136.81 27.4674 138.372 26.5625 139.805 25.4297C141.25 24.2839 142.565 22.9557 143.75 21.4453C144.935 19.9219 145.996 18.3203 146.934 16.6406C147.038 15.0521 147.22 13.8411 147.48 13.0078C147.754 12.1615 148.158 11.7383 148.691 11.7383C148.991 11.7383 149.238 11.862 149.434 12.1094C149.642 12.3568 149.746 12.6758 149.746 13.0664C149.746 13.4961 149.635 14.043 149.414 14.707C149.193 15.3711 148.854 16.1393 148.398 17.0117C148.359 17.6237 148.34 18.2812 148.34 18.9844C148.34 20.013 148.379 21.1393 148.457 22.3633C148.548 23.5872 148.685 24.8893 148.867 26.2695C149.414 25.9961 149.837 25.8008 150.137 25.6836C150.449 25.5534 150.677 25.4688 150.82 25.4297C150.964 25.3776 151.055 25.3581 151.094 25.3711C151.133 25.3711 151.165 25.3711 151.191 25.3711C151.387 25.3711 151.556 25.4427 151.699 25.5859C151.855 25.7161 151.934 25.8919 151.934 26.1133C151.934 26.2695 151.888 26.4128 151.797 26.543C151.706 26.6602 151.582 26.7448 151.426 26.7969C151.4 26.8099 151.172 26.901 150.742 27.0703C150.326 27.2266 149.766 27.4805 149.062 27.832C149.128 28.5352 149.18 29.2448 149.219 29.9609C149.258 30.6771 149.277 31.3997 149.277 32.1289C149.277 33.8477 149.154 35.4883 148.906 37.0508C148.659 38.6133 148.249 39.987 147.676 41.1719C147.116 42.3568 146.367 43.2943 145.43 43.9844C144.492 44.6875 143.34 45.0391 141.973 45.0391C141.296 45.0391 140.671 44.9219 140.098 44.6875C139.525 44.4531 139.03 44.1276 138.613 43.7109C138.197 43.2943 137.871 42.793 137.637 42.207C137.402 41.6341 137.285 41.0026 137.285 40.3125C137.285 39.3359 137.448 38.3724 137.773 37.4219C138.112 36.4714 138.555 35.5534 139.102 34.668C139.661 33.7826 140.299 32.9427 141.016 32.1484C141.732 31.3672 142.467 30.6445 143.223 29.9805C143.978 29.3164 144.72 28.7305 145.449 28.2227C146.191 27.7148 146.868 27.3047 147.48 26.9922C147.311 25.6901 147.174 24.4141 147.07 23.1641C146.966 21.901 146.901 20.6771 146.875 19.4922C145.742 21.3021 144.492 22.8971 143.125 24.2773C141.771 25.6576 140.352 26.8164 138.867 27.7539C137.383 28.6914 135.853 29.401 134.277 29.8828C132.715 30.3516 131.159 30.5859 129.609 30.5859C128.203 30.5859 126.927 30.3776 125.781 29.9609C124.635 29.5312 123.652 28.9062 122.832 28.0859C122.012 27.2656 121.38 26.25 120.938 25.0391C120.495 23.8281 120.273 22.4349 120.273 20.8594C120.273 19.1927 120.534 17.5521 121.055 15.9375C121.576 14.3099 122.298 12.7669 123.223 11.3086C124.147 9.83724 125.241 8.48307 126.504 7.24609C127.78 6.00911 129.167 4.94141 130.664 4.04297C132.174 3.13151 133.763 2.42188 135.43 1.91406C137.109 1.39323 138.822 1.13281 140.566 1.13281C142.246 1.13281 143.704 1.32812 144.941 1.71875C146.178 2.09635 147.227 2.58464 148.086 3.18359C148.958 3.76953 149.661 4.41406 150.195 5.11719C150.742 5.80729 151.172 6.46484 151.484 7.08984C151.745 7.6237 151.947 8.13802 152.09 8.63281C152.246 9.1276 152.357 9.5638 152.422 9.94141C152.5 10.319 152.546 10.625 152.559 10.8594C152.585 11.0938 152.598 11.2174 152.598 11.2305ZM147.656 28.6133C147.005 28.9779 146.328 29.4141 145.625 29.9219C144.935 30.4167 144.258 30.9635 143.594 31.5625C142.943 32.1615 142.324 32.806 141.738 33.4961C141.152 34.1862 140.638 34.9023 140.195 35.6445C139.753 36.3867 139.401 37.1484 139.141 37.9297C138.893 38.724 138.77 39.5182 138.77 40.3125C138.77 40.8073 138.848 41.25 139.004 41.6406C139.16 42.0443 139.382 42.3828 139.668 42.6562C139.954 42.9427 140.293 43.1641 140.684 43.3203C141.074 43.4766 141.504 43.5547 141.973 43.5547C143.809 43.5547 145.241 42.5781 146.27 40.625C147.298 38.6849 147.812 35.8464 147.812 32.1094C147.812 31.5495 147.799 30.9766 147.773 30.3906C147.747 29.8177 147.708 29.2253 147.656 28.6133ZM163.145 27.8516C162.819 27.8516 162.533 27.8255 162.285 27.7734C162.09 28.1641 161.855 28.5286 161.582 28.8672C161.309 29.1927 160.99 29.4792 160.625 29.7266C160.273 29.974 159.876 30.1693 159.434 30.3125C158.991 30.4557 158.509 30.5273 157.988 30.5273C157.376 30.5273 156.816 30.4167 156.309 30.1953C155.801 29.987 155.358 29.694 154.98 29.3164C154.603 28.9258 154.31 28.4635 154.102 27.9297C153.893 27.3828 153.789 26.7839 153.789 26.1328C153.789 25.2995 153.939 24.5768 154.238 23.9648C154.538 23.3398 154.883 22.8255 155.273 22.4219C155.664 22.0052 156.055 21.6992 156.445 21.5039C156.836 21.2956 157.129 21.1914 157.324 21.1914C157.546 21.1914 157.708 21.25 157.812 21.3672C157.93 21.4844 157.988 21.6406 157.988 21.8359C157.988 22.0573 157.917 22.2266 157.773 22.3438C157.643 22.4479 157.474 22.5521 157.266 22.6562C157.057 22.7604 156.836 22.9102 156.602 23.1055C156.367 23.2878 156.146 23.5221 155.938 23.8086C155.742 24.0951 155.579 24.4336 155.449 24.8242C155.319 25.2148 155.254 25.651 155.254 26.1328C155.254 26.5625 155.319 26.9661 155.449 27.3438C155.579 27.7083 155.768 28.0273 156.016 28.3008C156.263 28.5612 156.556 28.7695 156.895 28.9258C157.233 29.069 157.611 29.1406 158.027 29.1406C158.77 29.1406 159.382 28.9714 159.863 28.6328C160.358 28.2812 160.736 27.8385 160.996 27.3047C160.228 26.901 159.596 26.3281 159.102 25.5859C158.607 24.8438 158.359 24.0104 158.359 23.0859C158.359 22.3438 158.535 21.7383 158.887 21.2695C159.251 20.8008 159.727 20.5664 160.312 20.5664C160.664 20.5664 160.996 20.651 161.309 20.8203C161.621 20.9896 161.895 21.2565 162.129 21.6211C162.376 21.9857 162.572 22.4544 162.715 23.0273C162.858 23.6003 162.93 24.2839 162.93 25.0781C162.93 25.4948 162.878 25.931 162.773 26.3867C162.852 26.3997 162.93 26.4062 163.008 26.4062C163.086 26.4062 163.171 26.4062 163.262 26.4062C163.704 26.4062 164.102 26.3542 164.453 26.25C164.805 26.1458 165.124 25.9896 165.41 25.7812C165.697 25.5729 165.951 25.306 166.172 24.9805C166.406 24.6549 166.628 24.2773 166.836 23.8477C166.875 23.7695 166.96 23.6979 167.09 23.6328C167.22 23.5547 167.35 23.5156 167.48 23.5156C167.65 23.5156 167.806 23.5872 167.949 23.7305C168.105 23.8607 168.184 24.0365 168.184 24.2578C168.184 24.362 168.158 24.4792 168.105 24.6094C168.053 24.7266 168.001 24.8372 167.949 24.9414C167.728 25.332 167.467 25.7096 167.168 26.0742C166.882 26.4258 166.536 26.7383 166.133 27.0117C165.742 27.2721 165.299 27.4805 164.805 27.6367C164.31 27.793 163.757 27.8646 163.145 27.8516ZM159.805 22.9297C159.805 23.1771 159.837 23.4375 159.902 23.7109C159.967 23.9844 160.065 24.2578 160.195 24.5312C160.339 24.7917 160.508 25.0456 160.703 25.293C160.911 25.5273 161.152 25.7292 161.426 25.8984C161.465 25.625 161.484 25.3581 161.484 25.0977C161.484 24.7461 161.458 24.388 161.406 24.0234C161.354 23.6589 161.276 23.3268 161.172 23.0273C161.081 22.7148 160.964 22.4674 160.82 22.2852C160.677 22.0898 160.508 21.9922 160.312 21.9922C160.234 21.9922 160.13 22.0508 160 22.168C159.87 22.2852 159.805 22.5391 159.805 22.9297ZM171.133 28.2422C171.341 27.8125 171.582 27.3438 171.855 26.8359C172.129 26.3151 172.422 25.7943 172.734 25.2734C173.047 24.7396 173.372 24.2122 173.711 23.6914C174.062 23.1706 174.427 22.6758 174.805 22.207C175.182 21.7513 175.56 21.4258 175.938 21.2305C176.328 21.0221 176.693 20.918 177.031 20.918C177.708 20.918 178.21 21.1654 178.535 21.6602C178.861 22.1549 179.023 22.7669 179.023 23.4961C179.023 23.6654 179.01 23.8737 178.984 24.1211C178.971 24.3555 178.952 24.6094 178.926 24.8828C178.913 25.1562 178.893 25.4362 178.867 25.7227C178.854 25.9961 178.848 26.2565 178.848 26.5039C178.848 26.8164 178.861 27.1159 178.887 27.4023C178.926 27.6888 178.991 27.9427 179.082 28.1641C179.173 28.3724 179.303 28.5417 179.473 28.6719C179.642 28.7891 179.863 28.8477 180.137 28.8477C180.632 28.8477 181.113 28.6589 181.582 28.2812C182.051 27.8906 182.48 27.4349 182.871 26.9141C183.275 26.3802 183.62 25.8398 183.906 25.293C184.206 24.7461 184.427 24.3034 184.57 23.9648C184.635 23.8216 184.727 23.7109 184.844 23.6328C184.974 23.5547 185.111 23.5156 185.254 23.5156C185.475 23.5156 185.651 23.6003 185.781 23.7695C185.924 23.9258 185.996 24.0951 185.996 24.2773C185.996 24.3685 185.977 24.4596 185.938 24.5508C185.885 24.6549 185.781 24.8698 185.625 25.1953C185.469 25.5208 185.26 25.8984 185 26.3281C184.753 26.7448 184.46 27.194 184.121 27.6758C183.783 28.1445 183.405 28.5742 182.988 28.9648C182.585 29.3555 182.142 29.681 181.66 29.9414C181.191 30.2018 180.697 30.332 180.176 30.332C179.59 30.332 179.115 30.2214 178.75 30C178.385 29.7656 178.099 29.4661 177.891 29.1016C177.682 28.724 177.539 28.3138 177.461 27.8711C177.396 27.4154 177.363 26.9596 177.363 26.5039C177.363 26.3086 177.37 26.0872 177.383 25.8398C177.409 25.5924 177.435 25.332 177.461 25.0586C177.5 24.7852 177.526 24.5117 177.539 24.2383C177.565 23.9648 177.578 23.7044 177.578 23.457C177.578 23.0404 177.513 22.7604 177.383 22.6172C177.253 22.4609 177.135 22.3828 177.031 22.3828C176.823 22.3828 176.582 22.5065 176.309 22.7539C176.048 22.9883 175.768 23.3008 175.469 23.6914C175.182 24.082 174.883 24.5247 174.57 25.0195C174.271 25.5013 173.984 25.9831 173.711 26.4648C173.451 26.9466 173.203 27.4089 172.969 27.8516C172.747 28.2812 172.572 28.6393 172.441 28.9258C172.181 29.4727 171.921 29.8372 171.66 30.0195C171.4 30.2148 171.133 30.3125 170.859 30.3125C170.482 30.3125 170.176 30.2018 169.941 29.9805C169.72 29.7461 169.609 29.4206 169.609 29.0039C169.609 28.9128 169.622 28.737 169.648 28.4766C169.674 28.2031 169.707 27.8841 169.746 27.5195C169.785 27.1419 169.824 26.7383 169.863 26.3086C169.902 25.8789 169.941 25.4557 169.98 25.0391C170.02 24.6094 170.052 24.2122 170.078 23.8477C170.104 23.4831 170.117 23.1771 170.117 22.9297C170.117 22.6042 170.104 22.2917 170.078 21.9922C170.052 21.6927 170 21.5104 169.922 21.4453C169.805 21.4844 169.596 21.7318 169.297 22.1875C168.997 22.6302 168.613 23.418 168.145 24.5508C168.079 24.694 167.982 24.8047 167.852 24.8828C167.721 24.9609 167.585 25 167.441 25C167.22 25 167.044 24.9284 166.914 24.7852C166.784 24.6289 166.719 24.4531 166.719 24.2578C166.719 24.1667 166.738 24.069 166.777 23.9648C167.363 22.5716 167.91 21.5495 168.418 20.8984C168.939 20.2344 169.453 19.9023 169.961 19.9023C170.26 19.9023 170.514 19.9805 170.723 20.1367C170.931 20.2799 171.094 20.4753 171.211 20.7227C171.341 20.9701 171.432 21.2435 171.484 21.543C171.549 21.8424 171.582 22.1484 171.582 22.4609C171.582 22.6953 171.562 23.0599 171.523 23.5547C171.497 24.0495 171.458 24.5833 171.406 25.1562C171.354 25.7161 171.302 26.276 171.25 26.8359C171.211 27.3958 171.172 27.8646 171.133 28.2422ZM191.68 31.9141C194.128 28.724 195.827 26.0742 196.777 23.9648C196.842 23.8216 196.927 23.7174 197.031 23.6523C197.148 23.5742 197.279 23.5352 197.422 23.5352C197.643 23.5352 197.826 23.6133 197.969 23.7695C198.112 23.9128 198.184 24.082 198.184 24.2773C198.184 24.3685 198.164 24.4596 198.125 24.5508C197.552 25.8529 196.738 27.3047 195.684 28.9062C194.629 30.5078 193.294 32.3177 191.68 34.3359C191.68 35.1562 191.686 35.9766 191.699 36.7969C191.712 37.6172 191.719 38.5156 191.719 39.4922C191.719 40.4688 191.693 41.4323 191.641 42.3828C191.602 43.3464 191.523 44.2578 191.406 45.1172C191.289 45.9896 191.126 46.7904 190.918 47.5195C190.723 48.2617 190.462 48.8997 190.137 49.4336C189.824 49.9805 189.44 50.4036 188.984 50.7031C188.542 51.0156 188.014 51.1719 187.402 51.1719C186.53 51.1719 185.859 50.8398 185.391 50.1758C184.922 49.5117 184.688 48.5677 184.688 47.3438C184.688 46.6927 184.746 45.9831 184.863 45.2148C184.993 44.4596 185.176 43.6784 185.41 42.8711C185.645 42.0638 185.924 41.2435 186.25 40.4102C186.589 39.5898 186.96 38.7891 187.363 38.0078C187.767 37.2266 188.203 36.4779 188.672 35.7617C189.154 35.0456 189.661 34.3945 190.195 33.8086C190.208 32.8971 190.215 31.9922 190.215 31.0938C190.228 30.1953 190.247 29.3685 190.273 28.6133C189.883 29.1081 189.414 29.4987 188.867 29.7852C188.333 30.0716 187.799 30.2148 187.266 30.2148C186.81 30.2148 186.393 30.1302 186.016 29.9609C185.651 29.7786 185.339 29.5312 185.078 29.2188C184.818 28.8932 184.616 28.5156 184.473 28.0859C184.329 27.6562 184.258 27.1875 184.258 26.6797C184.258 25.6641 184.427 24.7721 184.766 24.0039C185.117 23.2227 185.56 22.5716 186.094 22.0508C186.628 21.5299 187.214 21.1393 187.852 20.8789C188.503 20.6185 189.128 20.4883 189.727 20.4883C190.13 20.4883 190.501 20.5404 190.84 20.6445C191.178 20.7487 191.465 20.8659 191.699 20.9961C191.947 21.1263 192.135 21.25 192.266 21.3672C192.396 21.4844 192.467 21.5495 192.48 21.5625C192.624 21.7188 192.695 21.8945 192.695 22.0898C192.695 22.2852 192.624 22.4609 192.48 22.6172C192.337 22.7604 192.168 22.832 191.973 22.832C191.79 22.832 191.615 22.7604 191.445 22.6172C191.393 22.5781 191.322 22.526 191.23 22.4609C191.152 22.3828 191.042 22.3047 190.898 22.2266C190.768 22.1484 190.605 22.0833 190.41 22.0312C190.228 21.9792 190.007 21.9531 189.746 21.9531C189.355 21.9531 188.926 22.0443 188.457 22.2266C187.988 22.3958 187.552 22.6693 187.148 23.0469C186.745 23.4245 186.406 23.9128 186.133 24.5117C185.859 25.0977 185.723 25.8073 185.723 26.6406C185.723 27.2656 185.859 27.7734 186.133 28.1641C186.406 28.5417 186.829 28.7305 187.402 28.7305C187.676 28.7305 187.962 28.6523 188.262 28.4961C188.574 28.3398 188.874 28.099 189.16 27.7734C189.447 27.4479 189.694 27.0378 189.902 26.543C190.124 26.0482 190.28 25.4622 190.371 24.7852C190.397 24.6029 190.482 24.4531 190.625 24.3359C190.768 24.2057 190.938 24.1406 191.133 24.1406C191.354 24.1406 191.523 24.2188 191.641 24.375C191.771 24.5312 191.836 24.707 191.836 24.9023C191.836 24.9154 191.829 25.1172 191.816 25.5078C191.803 25.8854 191.79 26.3932 191.777 27.0312C191.764 27.6693 191.745 28.4115 191.719 29.2578C191.706 30.0911 191.693 30.9766 191.68 31.9141ZM190.195 36.1914C189.583 37.0378 189.03 37.9557 188.535 38.9453C188.04 39.9479 187.617 40.957 187.266 41.9727C186.914 42.9883 186.641 43.9714 186.445 44.9219C186.263 45.8854 186.172 46.7448 186.172 47.5C186.172 47.9818 186.211 48.3659 186.289 48.6523C186.38 48.9388 186.484 49.1602 186.602 49.3164C186.732 49.4727 186.868 49.5768 187.012 49.6289C187.168 49.681 187.311 49.707 187.441 49.707C187.845 49.707 188.197 49.5443 188.496 49.2188C188.796 48.8932 189.049 48.457 189.258 47.9102C189.466 47.3763 189.635 46.7578 189.766 46.0547C189.896 45.3516 189.993 44.6224 190.059 43.8672C190.124 43.125 190.169 42.3828 190.195 41.6406C190.221 40.8984 190.234 40.2148 190.234 39.5898C190.234 39.0299 190.234 38.4701 190.234 37.9102C190.234 37.3503 190.221 36.7773 190.195 36.1914Z" fill="#3A3A3A"/>
</svg>
